<!DOCTYPE svg PUBLIC "-//W3C//DTD SVG 1.1//EN" "http://www.w3.org/Graphics/SVG/1.1/DTD/svg11.dtd">
<!-- Uploaded to: SVG Repo, www.svgrepo.com, Transformed by: SVG Repo Mixer Tools -->
<svg height="800px" width="800px" version="1.1" id="Layer_1" xmlns="http://www.w3.org/2000/svg" xmlns:xlink="http://www.w3.org/1999/xlink" viewBox="0 0 512 512" xml:space="preserve" fill="#000000">
<g id="SVGRepo_bgCarrier" stroke-width="0"/>
<g id="SVGRepo_tracerCarrier" stroke-linecap="round" stroke-linejoin="round"/>
<g id="SVGRepo_iconCarrier"> <path style="fill:#01b4b7;" d="M389.447,317.277l-10.894,16.34l10.894,16.34h32.681 C422.128,331.908,407.496,317.277,389.447,317.277z"/> <path style="fill:#1fe0e0;" d="M356.766,349.957h32.681v-32.681C371.397,317.277,356.766,331.908,356.766,349.957z"/> <path style="fill:#01b4b7;" d="M389.447,40.851v276.426c66.636-23.555,114.383-87.34,114.383-162.043 C503.83,92.062,452.619,40.851,389.447,40.851z"/> <path style="fill:#1fe0e0;" d="M471.149,155.234c0-63.172-36.58-114.383-81.702-114.383c-63.172,0-114.383,51.211-114.383,114.383 c0,74.703,47.747,138.487,114.383,162.043C437.044,293.721,471.149,229.937,471.149,155.234z"/> <path style="fill:#FF6638;" d="M122.553,317.277l-10.894,16.34l10.894,16.34h32.681 C155.234,331.908,140.603,317.277,122.553,317.277z"/> <g> <path style="fill:#FF883E;" d="M89.872,349.957h32.681v-32.681C104.504,317.277,89.872,331.908,89.872,349.957z"/> <path style="fill:#FF883E;" d="M125.332,40.886c-0.924-0.022-1.85-0.035-2.779-0.035C59.381,40.851,8.17,92.062,8.17,155.234 c0,74.703,47.747,138.487,114.383,162.043c12.704-4.49,24.719-10.448,35.85-17.66L125.332,40.886z"/> </g> <path style="fill:#FF6638;" d="M236.936,155.234c0-62.243-49.716-112.872-111.604-114.348 c-20.545,27.323-32.736,61.268-32.736,98.008c0,61.41,24.597,118.742,65.807,160.723 C205.656,268.999,236.936,215.695,236.936,155.234z"/> <path style="fill:#FFE1AA;" d="M256,324.085l-10.894,16.34L256,356.766h32.681C288.681,338.716,274.05,324.085,256,324.085z"/> <path style="fill:#FFFFFF;" d="M223.319,356.766H256v-32.681C237.95,324.085,223.319,338.716,223.319,356.766z"/> <path style="fill:#FFE1AA;" d="M256,8.17v315.915c76.156-26.92,130.723-99.817,130.723-185.191 C386.723,66.697,328.196,8.17,256,8.17z"/> <path style="fill:#FFFFFF;" d="M354.043,138.894C354.043,66.697,310.148,8.17,256,8.17c-72.196,0-130.723,58.527-130.723,130.723 c0,85.374,54.567,158.271,130.723,185.191C313.116,297.165,354.043,224.268,354.043,138.894z"/> <path d="M512,155.234c0-67.575-54.977-122.553-122.553-122.553c-12.834,0-25.43,1.972-37.52,5.86C326.974,14.678,293.17,0,256,0 s-70.974,14.678-95.927,38.541c-12.09-3.888-24.686-5.86-37.52-5.86C54.977,32.681,0,87.659,0,155.234 c0,68.714,39.169,130.934,99.429,161.072c-10.698,7.374-17.727,19.704-17.727,33.651c0,4.513,3.658,8.17,8.17,8.17h24.511v129.362 c0,13.515,10.995,24.511,24.511,24.511s24.511-10.996,24.511-24.511v-32.681c0-4.506,3.665-8.17,8.17-8.17s8.17,3.665,8.17,8.17 v49.021c0,4.513,3.658,8.17,8.17,8.17s8.17-3.657,8.17-8.17v-49.021c0-13.515-10.995-24.511-24.511-24.511 s-24.511,10.996-24.511,24.511v32.681c0,4.506-3.665,8.17-8.17,8.17s-8.17-3.665-8.17-8.17V349.957c0-4.513-3.658-8.17-8.17-8.17 H99.442c3.372-9.51,12.459-16.34,23.111-16.34c13.516,0,24.511,10.996,24.511,24.511c0,4.513,3.658,8.17,8.17,8.17 s8.17-3.657,8.17-8.17c0-13.957-7.039-26.296-17.751-33.669c5.889-2.953,11.633-6.225,17.186-9.823 c3.787-2.454,4.866-7.512,2.413-11.3c-2.453-3.788-7.513-4.865-11.3-2.413c-9.9,6.417-20.451,11.734-31.4,15.83 C58.899,284.804,16.34,223.548,16.34,155.234c0-58.566,47.646-106.213,106.213-106.213c8.543,0,16.957,1.028,25.146,3.019 c-19.128,23.803-30.593,54.013-30.593,86.854c0,79.081,45.653,150.59,115.618,184.329c-10.611,7.386-17.576,19.664-17.576,33.544 c0,4.513,3.658,8.17,8.17,8.17h24.511V503.83c0,4.513,3.658,8.17,8.17,8.17s8.17-3.657,8.17-8.17V356.766 c0-4.513-3.658-8.17-8.17-8.17h-23.111c3.372-9.51,12.459-16.34,23.111-16.34c13.516,0,24.511,10.996,24.511,24.511 c0,4.513,3.658,8.17,8.17,8.17c4.512,0,8.17-3.657,8.17-8.17c0-13.881-6.964-26.159-17.576-33.544 c69.965-33.739,115.618-105.248,115.618-184.329c0-32.841-11.464-63.051-30.593-86.854c8.189-1.99,16.603-3.019,25.146-3.019 c58.566,0,106.213,47.647,106.213,106.213c0,68.314-42.558,129.57-106.212,153.349c-10.949-4.096-21.499-9.413-31.4-15.83 c-3.787-2.452-8.845-1.375-11.3,2.413c-2.453,3.788-1.374,8.846,2.413,11.3c5.551,3.598,11.297,6.87,17.186,9.823 c-10.712,7.372-17.751,19.711-17.751,33.668c0,4.513,3.658,8.17,8.17,8.17h24.511v129.362c0,4.506-3.665,8.17-8.17,8.17 s-8.17-3.665-8.17-8.17v-32.681c0-13.515-10.995-24.511-24.511-24.511c-13.516,0-24.511,10.996-24.511,24.511v49.021 c0,4.513,3.658,8.17,8.17,8.17c4.512,0,8.17-3.657,8.17-8.17v-49.021c0-4.506,3.665-8.17,8.17-8.17s8.17,3.665,8.17,8.17v32.681 c0,13.515,10.995,24.511,24.511,24.511c13.516,0,24.511-10.996,24.511-24.511V349.957c0-4.513-3.658-8.17-8.17-8.17h-23.111 c3.372-9.51,12.459-16.34,23.111-16.34c13.516,0,24.511,10.996,24.511,24.511c0,4.513,3.658,8.17,8.17,8.17 c4.512,0,8.17-3.657,8.17-8.17c0-13.947-7.03-26.278-17.727-33.651C472.831,286.168,512,223.948,512,155.234z M256,315.395 c-73.427-27.236-122.553-97.795-122.553-176.502C133.447,71.317,188.424,16.34,256,16.34s122.553,54.977,122.553,122.553 C378.553,217.6,329.427,288.159,256,315.395z"/> </g>
</svg>